<svg width="80" height="80" viewBox="0 0 80 80" fill="none" xmlns="http://www.w3.org/2000/svg">
<path d="M5.80664 46.7275C5.75391 45.7256 5.68652 44.7471 5.60449 43.792C6.2666 44.0439 6.7998 44.2139 7.2041 44.3018C7.61426 44.3896 7.99512 44.4336 8.34668 44.4336C8.73926 44.4336 9.09082 44.3633 9.40137 44.2227C9.63574 44.1113 9.82031 43.9678 9.95508 43.792C10.1367 43.5459 10.2598 43.2588 10.3242 42.9307C10.4355 42.3389 10.5205 41.3105 10.5791 39.8457C10.6377 38.375 10.667 37.1035 10.667 36.0312V35.0029C11.6045 35.0146 12.2285 35.0205 12.5391 35.0205C12.9258 35.0205 13.5879 35.0146 14.5254 35.0029L14.2617 38.8877C14.1973 40.0361 14.1504 41.2578 14.1211 42.5527C14.0977 43.5488 14.0479 44.2314 13.9717 44.6006C13.9014 44.9346 13.8018 45.2158 13.6729 45.4443C13.5557 45.6611 13.4092 45.8545 13.2334 46.0244C13.0166 46.2295 12.7559 46.4082 12.4512 46.5605C12.041 46.7715 11.6045 46.9297 11.1416 47.0352C10.6318 47.1523 10.0869 47.2109 9.50684 47.2109C8.43457 47.2109 7.20117 47.0498 5.80664 46.7275ZM16.7051 35.0029C17.6191 35.0146 18.2637 35.0205 18.6387 35.0205C19.1074 35.0205 19.7314 35.0146 20.5107 35.0029L20.2471 38.7383C20.1943 39.4414 20.1533 40.1006 20.124 40.7158C20.1006 41.3311 20.0889 41.7559 20.0889 41.9902C20.0889 42.4355 20.1211 42.8076 20.1855 43.1064C20.25 43.4053 20.3672 43.6602 20.5371 43.8711C20.707 44.0762 20.9414 44.2314 21.2402 44.3369C21.5449 44.4424 21.8613 44.4951 22.1895 44.4951C22.4707 44.4951 22.7344 44.4629 22.9805 44.3984C23.1738 44.3457 23.3467 44.2725 23.499 44.1787C23.6338 44.0908 23.751 43.9883 23.8506 43.8711C23.9736 43.7305 24.082 43.5547 24.1758 43.3438C24.2695 43.1445 24.3398 42.8867 24.3867 42.5703C24.4395 42.248 24.5098 41.5156 24.5977 40.373C24.6738 39.4004 24.7324 38.5098 24.7734 37.7012C24.8086 36.916 24.8408 36.0166 24.8701 35.0029C25.7549 35.0146 26.4521 35.0205 26.9619 35.0205L28.7461 35.0029L28.3154 41.2432C28.3096 41.3604 28.3066 41.457 28.3066 41.5332C28.2832 42.752 28.207 43.6133 28.0781 44.1172C27.9551 44.6152 27.7471 45.0488 27.4541 45.418C27.1611 45.7871 26.7334 46.1211 26.1709 46.4199C25.6084 46.7129 24.9697 46.9209 24.2549 47.0439C23.54 47.167 22.8164 47.2285 22.084 47.2285C21.4277 47.2285 20.7949 47.1816 20.1855 47.0879C19.623 46.9941 19.1162 46.8594 18.665 46.6836C18.2139 46.502 17.8213 46.291 17.4873 46.0508C17.1826 45.8281 16.9482 45.6025 16.7842 45.374C16.6201 45.1396 16.4912 44.8613 16.3975 44.5391C16.292 44.1758 16.2393 43.7861 16.2393 43.3701C16.2393 43.2295 16.2451 43.0186 16.2568 42.7373C16.2686 42.4502 16.2949 42.04 16.3359 41.5068L16.4502 40.1006C16.4795 39.7314 16.5117 39.1895 16.5469 38.4746L16.7051 35.0029ZM29.9678 47L30.1875 45.2246L30.7324 39.0635L31.0049 35.0029C32.083 35.0146 32.9297 35.0205 33.5449 35.0205C34.0547 35.0205 34.834 35.0146 35.8828 35.0029C35.959 35.5068 36.0234 35.8906 36.0762 36.1543C36.1289 36.4121 36.2578 36.9219 36.4629 37.6836C36.6738 38.4395 36.8408 39.0957 36.9639 39.6523C37.0928 40.2031 37.2832 41.1494 37.5352 42.4912C37.793 41.5713 38.0273 40.7803 38.2383 40.1182C38.4492 39.4561 38.7129 38.7031 39.0293 37.8594C39.3457 37.0156 39.5449 36.4648 39.627 36.207C39.7148 35.9434 39.832 35.542 39.9785 35.0029C40.8574 35.0146 41.7188 35.0205 42.5625 35.0205C43.1367 35.0205 43.9336 35.0146 44.9531 35.0029C44.8418 36.9775 44.7686 38.6738 44.7334 40.0918C44.6572 42.8691 44.6191 44.7793 44.6191 45.8223C44.6191 46.0391 44.625 46.4316 44.6367 47C43.8633 46.9883 43.3213 46.9824 43.0107 46.9824C42.5596 46.9824 42.0059 46.9883 41.3496 47C41.3965 46.4727 41.4551 45.2188 41.5254 43.2383C41.5957 41.252 41.6309 39.9834 41.6309 39.4326C41.6309 39.1924 41.625 38.8584 41.6133 38.4307L40.4619 42.0078L38.8096 47C38.0479 46.9883 37.5234 46.9824 37.2363 46.9824C36.873 46.9824 36.3164 46.9883 35.5664 47L34.4854 42.166L33.8525 39.5908C33.8291 39.4912 33.8027 39.3682 33.7734 39.2217C33.7441 39.0752 33.6973 38.8174 33.6328 38.4482L33.4131 40.8828L33.123 45.875L33.0967 47C32.2881 46.9883 31.7725 46.9824 31.5498 46.9824C31.2451 46.9824 30.7178 46.9883 29.9678 47ZM46.7812 47C46.9043 45.7109 46.9863 44.6973 47.0273 43.959C47.0859 42.9512 47.1416 41.5684 47.1943 39.8105C47.2529 38.0527 47.2822 36.8135 47.2822 36.0928C47.2822 35.835 47.2793 35.4717 47.2734 35.0029C48.0527 35.0205 48.6709 35.0293 49.1279 35.0293C49.7666 35.0293 50.5107 35.0176 51.3604 34.9941C52.21 34.9648 52.9395 34.9502 53.5488 34.9502C54.2812 34.9502 54.8027 34.9707 55.1133 35.0117C55.5234 35.0645 55.8809 35.1582 56.1855 35.293C56.4961 35.4277 56.7539 35.5947 56.959 35.7939C57.1875 36.0283 57.3662 36.3096 57.4951 36.6377C57.6416 37.0127 57.7148 37.4141 57.7148 37.8418C57.7148 38.1758 57.6709 38.4951 57.583 38.7998C57.501 39.1045 57.3809 39.377 57.2227 39.6172C57.0703 39.8516 56.8975 40.0479 56.7041 40.2061C56.5107 40.3643 56.3203 40.4873 56.1328 40.5752C55.9512 40.6631 55.7051 40.751 55.3945 40.8389C55.7051 40.8916 55.9541 40.9531 56.1416 41.0234C56.3291 41.0879 56.5283 41.1963 56.7393 41.3486C56.9561 41.4951 57.1494 41.6855 57.3193 41.9199C57.4893 42.1543 57.6152 42.418 57.6973 42.7109C57.7852 42.998 57.8291 43.3027 57.8291 43.625C57.8291 44.0703 57.7559 44.4893 57.6094 44.8818C57.4629 45.2744 57.2578 45.6113 56.9941 45.8926C56.7715 46.1328 56.4814 46.3379 56.124 46.5078C55.7666 46.6777 55.4004 46.7949 55.0254 46.8594C54.7207 46.9062 54.1641 46.9414 53.3555 46.9648C52.5527 46.9883 51.7002 47 50.7979 47L48.4863 46.9912L46.7812 47ZM50.7012 39.6787H51.9492C52.3594 39.6787 52.6494 39.6699 52.8193 39.6523C52.9951 39.6289 53.165 39.5908 53.3291 39.5381C53.4932 39.4854 53.6338 39.3975 53.751 39.2744C53.874 39.1514 53.959 39.0137 54.0059 38.8613C54.0586 38.709 54.085 38.5566 54.085 38.4043C54.085 38.1875 54.0322 37.9941 53.9268 37.8242C53.8271 37.6543 53.6631 37.5283 53.4346 37.4463C53.2061 37.3643 52.8574 37.3232 52.3887 37.3232H50.8066L50.7012 39.6787ZM50.499 44.5918H52.1865C52.6318 44.5918 52.96 44.5654 53.1709 44.5127C53.4287 44.4482 53.625 44.3633 53.7598 44.2578C53.8945 44.1523 54 44.0088 54.0762 43.8271C54.1582 43.6455 54.1992 43.4434 54.1992 43.2207C54.1992 43.0273 54.167 42.8574 54.1025 42.7109C54.0381 42.5645 53.9414 42.4414 53.8125 42.3418C53.6836 42.2422 53.5254 42.1719 53.3379 42.1309C53.1504 42.084 52.8574 42.0605 52.459 42.0605H50.6045L50.499 44.5918ZM66.7852 34.7744C67.7227 34.7744 68.625 34.9004 69.4922 35.1523C70.3594 35.4043 71.1182 35.8086 71.7686 36.3652C72.4189 36.916 72.9053 37.5518 73.2275 38.2725C73.5498 38.9932 73.7109 39.8223 73.7109 40.7598C73.7109 41.7441 73.5322 42.6494 73.1748 43.4756C72.8232 44.2959 72.3135 44.9932 71.6455 45.5674C70.9775 46.1416 70.1807 46.5635 69.2549 46.833C68.3291 47.0967 67.3652 47.2285 66.3633 47.2285C65.373 47.2285 64.4238 47.0996 63.5156 46.8418C62.6074 46.5781 61.8164 46.1562 61.1426 45.5762C60.4746 44.9902 60 44.3398 59.7188 43.625C59.4375 42.9102 59.2969 42.1162 59.2969 41.2432C59.2969 39.96 59.5928 38.835 60.1846 37.8682C60.7822 36.8955 61.6641 36.1367 62.8301 35.5918C64.002 35.0469 65.3203 34.7744 66.7852 34.7744ZM66.627 37.4199C65.9531 37.4199 65.3438 37.5869 64.7988 37.9209C64.2539 38.249 63.835 38.709 63.542 39.3008C63.249 39.8867 63.1025 40.5166 63.1025 41.1904C63.1025 41.8115 63.2344 42.3799 63.498 42.8955C63.7676 43.4111 64.1748 43.8154 64.7197 44.1084C65.2646 44.3955 65.8418 44.5391 66.4512 44.5391C67.1016 44.5391 67.6963 44.3779 68.2354 44.0557C68.7803 43.7275 69.1934 43.2705 69.4746 42.6846C69.7617 42.0928 69.9053 41.4746 69.9053 40.8301C69.9053 40.2031 69.7734 39.626 69.5098 39.0986C69.2461 38.5654 68.8594 38.1523 68.3496 37.8594C67.8398 37.5664 67.2656 37.4199 66.627 37.4199Z" fill="white"/>
<path d="M24.0137 56.6094C23.9811 56.7428 23.9583 56.8665 23.9453 56.9805C23.5319 57.0618 23.1462 57.1025 22.7881 57.1025C22.4495 57.1025 22.1322 57.0553 21.8359 56.9609C21.543 56.8665 21.2907 56.7152 21.0791 56.5068C20.8675 56.2952 20.7096 56.0316 20.6055 55.7158C20.5046 55.3968 20.4541 55.0632 20.4541 54.7148C20.4541 54.2396 20.5339 53.7871 20.6934 53.3574C20.8561 52.9277 21.1133 52.5892 21.4648 52.3418C21.8197 52.0911 22.2982 51.9658 22.9004 51.9658C23.3398 51.9658 23.7581 52.026 24.1553 52.1465C24.1585 52.2539 24.1699 52.3678 24.1895 52.4883C23.8509 52.3841 23.5856 52.3174 23.3936 52.2881C23.2015 52.2555 23.0257 52.2393 22.8662 52.2393C22.5244 52.2393 22.2217 52.306 21.958 52.4395C21.6943 52.5697 21.4746 52.7552 21.2988 52.9961C21.1263 53.237 21.0026 53.5072 20.9277 53.8066C20.8561 54.1029 20.8203 54.4007 20.8203 54.7002C20.8203 55.0225 20.861 55.3236 20.9424 55.6035C21.0238 55.8835 21.154 56.1113 21.333 56.2871C21.512 56.4629 21.7318 56.598 21.9922 56.6924C22.2526 56.7835 22.526 56.8291 22.8125 56.8291C22.972 56.8291 23.1413 56.8145 23.3203 56.7852C23.4993 56.7526 23.7305 56.694 24.0137 56.6094ZM28.8867 56.5264C28.8607 56.6468 28.8411 56.7689 28.8281 56.8926C28.5579 56.9707 28.3154 57.0244 28.1006 57.0537C27.8857 57.0863 27.666 57.1025 27.4414 57.1025C27.0508 57.1025 26.7041 57.0505 26.4014 56.9463C26.1019 56.8389 25.8447 56.6631 25.6299 56.4189C25.415 56.1715 25.262 55.8949 25.1709 55.5889C25.0798 55.2829 25.0342 54.9574 25.0342 54.6123C25.0342 54.1598 25.1123 53.7367 25.2686 53.3428C25.4248 52.9456 25.682 52.6169 26.04 52.3564C26.3981 52.096 26.8424 51.9658 27.373 51.9658C27.7376 51.9658 28.068 52.0342 28.3643 52.1709C28.6605 52.3044 28.89 52.5241 29.0527 52.8301C29.2188 53.1361 29.3018 53.499 29.3018 53.9189C29.3018 53.9971 29.2985 54.0719 29.292 54.1436L25.4297 54.1484C25.4134 54.36 25.4053 54.5195 25.4053 54.627C25.4053 54.9362 25.4508 55.2357 25.542 55.5254C25.6331 55.8151 25.7699 56.0576 25.9521 56.2529C26.1377 56.4482 26.359 56.5931 26.6162 56.6875C26.8734 56.7819 27.1452 56.8291 27.4316 56.8291C27.8678 56.8291 28.3529 56.7282 28.8867 56.5264ZM25.4736 53.8799L28.9453 53.8848C28.9421 53.6602 28.929 53.4876 28.9062 53.3672C28.8835 53.2467 28.8411 53.123 28.7793 52.9961C28.7174 52.8691 28.6426 52.7601 28.5547 52.6689C28.4701 52.5745 28.3691 52.4964 28.252 52.4346C28.138 52.3695 28.0094 52.3206 27.8662 52.2881C27.723 52.2555 27.5732 52.2393 27.417 52.2393C27.2445 52.2393 27.0752 52.2588 26.9092 52.2979C26.7432 52.3369 26.5918 52.3906 26.4551 52.459C26.3184 52.5273 26.1898 52.6152 26.0693 52.7227C25.9521 52.8268 25.8545 52.9408 25.7764 53.0645C25.7015 53.1882 25.6429 53.307 25.6006 53.4209C25.5615 53.5316 25.5192 53.6846 25.4736 53.8799ZM30.2051 57L30.3711 54.0166L30.415 52.6152C30.4215 52.3646 30.4248 52.1823 30.4248 52.0684C30.5094 52.0716 30.5729 52.0732 30.6152 52.0732C30.6543 52.0732 30.7161 52.0716 30.8008 52.0684L30.7373 53.1816C30.8089 53.0286 30.8675 52.9131 30.9131 52.835C30.9619 52.7536 31.027 52.6673 31.1084 52.5762C31.1898 52.485 31.2858 52.4004 31.3965 52.3223C31.5104 52.2409 31.6455 52.1742 31.8018 52.1221C31.9613 52.0667 32.124 52.0277 32.29 52.0049C32.4561 51.9788 32.6204 51.9658 32.7832 51.9658C33.0566 51.9658 33.3219 51.9967 33.5791 52.0586C33.8363 52.1204 34.0495 52.2279 34.2188 52.3809C34.388 52.5306 34.5036 52.7048 34.5654 52.9033C34.6305 53.0986 34.6631 53.3086 34.6631 53.5332C34.6631 53.6341 34.6582 53.7839 34.6484 53.9824L34.5459 56.2041L34.5264 57C34.4613 56.9967 34.3978 56.9951 34.3359 56.9951C34.2741 56.9951 34.2122 56.9967 34.1504 57C34.1829 56.5931 34.209 56.2041 34.2285 55.833L34.2969 54.583C34.3229 54.1208 34.3359 53.7871 34.3359 53.582C34.3359 53.3672 34.305 53.1751 34.2432 53.0059C34.1813 52.8366 34.0739 52.6966 33.9209 52.5859C33.7712 52.472 33.5921 52.3906 33.3838 52.3418C33.1755 52.2897 32.9606 52.2637 32.7393 52.2637C32.43 52.2637 32.1566 52.306 31.9189 52.3906C31.6943 52.472 31.4974 52.5924 31.3281 52.752C31.1589 52.9082 31.0205 53.1068 30.9131 53.3477C30.8317 53.5234 30.7699 53.7692 30.7275 54.085C30.6885 54.3584 30.6559 54.806 30.6299 55.4277C30.6071 56.0462 30.5957 56.5703 30.5957 57C30.5111 56.9967 30.446 56.9951 30.4004 56.9951C30.3548 56.9951 30.2897 56.9967 30.2051 57ZM39.3359 56.6094C39.3034 56.7428 39.2806 56.8665 39.2676 56.9805C38.8542 57.0618 38.4684 57.1025 38.1104 57.1025C37.7718 57.1025 37.4544 57.0553 37.1582 56.9609C36.8652 56.8665 36.613 56.7152 36.4014 56.5068C36.1898 56.2952 36.0319 56.0316 35.9277 55.7158C35.8268 55.3968 35.7764 55.0632 35.7764 54.7148C35.7764 54.2396 35.8561 53.7871 36.0156 53.3574C36.1784 52.9277 36.4355 52.5892 36.7871 52.3418C37.1419 52.0911 37.6204 51.9658 38.2227 51.9658C38.6621 51.9658 39.0804 52.026 39.4775 52.1465C39.4808 52.2539 39.4922 52.3678 39.5117 52.4883C39.1732 52.3841 38.9079 52.3174 38.7158 52.2881C38.5238 52.2555 38.348 52.2393 38.1885 52.2393C37.8467 52.2393 37.5439 52.306 37.2803 52.4395C37.0166 52.5697 36.7969 52.7552 36.6211 52.9961C36.4486 53.237 36.3249 53.5072 36.25 53.8066C36.1784 54.1029 36.1426 54.4007 36.1426 54.7002C36.1426 55.0225 36.1833 55.3236 36.2646 55.6035C36.346 55.8835 36.4762 56.1113 36.6553 56.2871C36.8343 56.4629 37.054 56.598 37.3145 56.6924C37.5749 56.7835 37.8483 56.8291 38.1348 56.8291C38.2943 56.8291 38.4635 56.8145 38.6426 56.7852C38.8216 56.7526 39.0527 56.694 39.3359 56.6094ZM42.7783 51.9658C43.0811 51.9658 43.374 52.0081 43.6572 52.0928C43.9404 52.1774 44.1895 52.3223 44.4043 52.5273C44.6224 52.7292 44.7884 52.9945 44.9023 53.3232C45.0163 53.652 45.0732 54.0003 45.0732 54.3682C45.0732 54.7653 45.013 55.1462 44.8926 55.5107C44.7721 55.8753 44.6012 56.1813 44.3799 56.4287C44.1585 56.6729 43.8981 56.8454 43.5986 56.9463C43.3024 57.0472 42.9867 57.0977 42.6514 57.0977C42.417 57.0977 42.1859 57.07 41.958 57.0146C41.7334 56.9626 41.5218 56.873 41.3232 56.7461C41.1279 56.6191 40.9554 56.4548 40.8057 56.2529C40.6592 56.0511 40.5469 55.8118 40.4688 55.5352C40.3939 55.2585 40.3564 54.9704 40.3564 54.6709C40.3564 54.1468 40.4541 53.6683 40.6494 53.2354C40.8447 52.7992 41.1361 52.4785 41.5234 52.2734C41.9141 52.0684 42.3324 51.9658 42.7783 51.9658ZM42.7686 52.2393C42.3812 52.2393 42.0215 52.3337 41.6895 52.5225C41.3574 52.7113 41.1133 52.9993 40.957 53.3867C40.8008 53.7741 40.7227 54.1989 40.7227 54.6611C40.7227 54.9867 40.7666 55.2926 40.8545 55.5791C40.9456 55.8656 41.0905 56.1081 41.2891 56.3066C41.4876 56.502 41.7008 56.6387 41.9287 56.7168C42.1598 56.7917 42.4023 56.8291 42.6562 56.8291C42.946 56.8291 43.2178 56.7819 43.4717 56.6875C43.7256 56.5931 43.9486 56.4352 44.1406 56.2139C44.3359 55.9925 44.4792 55.7207 44.5703 55.3984C44.6615 55.0762 44.707 54.7344 44.707 54.373C44.707 54.0378 44.6615 53.7236 44.5703 53.4307C44.4824 53.1344 44.3441 52.8984 44.1553 52.7227C43.9665 52.5436 43.7516 52.4183 43.5107 52.3467C43.2699 52.2751 43.0225 52.2393 42.7686 52.2393ZM45.8203 56.9072C45.8138 56.751 45.8008 56.6126 45.7812 56.4922C46.0384 56.6061 46.2809 56.6859 46.5088 56.7314C46.7367 56.777 46.945 56.7998 47.1338 56.7998C47.3844 56.7998 47.5977 56.764 47.7734 56.6924C47.9525 56.6208 48.0876 56.515 48.1787 56.375C48.2699 56.235 48.3154 56.0885 48.3154 55.9355C48.3154 55.8672 48.3073 55.8021 48.291 55.7402C48.278 55.6751 48.2552 55.6117 48.2227 55.5498C48.1901 55.4847 48.1527 55.4261 48.1104 55.374C48.0713 55.3187 48.0143 55.2568 47.9395 55.1885C47.8678 55.1201 47.7832 55.0436 47.6855 54.959C47.5879 54.8743 47.4349 54.7458 47.2266 54.5732C47.0182 54.4007 46.8457 54.2526 46.709 54.1289C46.5755 54.002 46.4632 53.875 46.3721 53.748C46.2842 53.6178 46.2207 53.499 46.1816 53.3916C46.1458 53.2842 46.1279 53.1751 46.1279 53.0645C46.1279 52.8757 46.1865 52.6934 46.3037 52.5176C46.4242 52.3385 46.5951 52.2018 46.8164 52.1074C47.041 52.013 47.3242 51.9658 47.666 51.9658C47.9525 51.9658 48.2747 52.0033 48.6328 52.0781C48.6361 52.2214 48.6458 52.3597 48.6621 52.4932C48.4538 52.4053 48.2666 52.3467 48.1006 52.3174C47.9378 52.2848 47.7718 52.2686 47.6025 52.2686C47.391 52.2686 47.1956 52.3011 47.0166 52.3662C46.8376 52.4281 46.7025 52.5208 46.6113 52.6445C46.5234 52.765 46.4795 52.8968 46.4795 53.04C46.4795 53.1182 46.4893 53.1914 46.5088 53.2598C46.5283 53.3281 46.5592 53.3981 46.6016 53.4697C46.6439 53.5381 46.6976 53.6097 46.7627 53.6846C46.8311 53.7562 46.9173 53.8408 47.0215 53.9385C47.1289 54.0329 47.2819 54.1647 47.4805 54.334C47.6823 54.5 47.832 54.627 47.9297 54.7148C48.0273 54.7995 48.1104 54.8776 48.1787 54.9492C48.2503 55.0208 48.3171 55.1006 48.3789 55.1885C48.444 55.2731 48.4961 55.3561 48.5352 55.4375C48.5742 55.5189 48.6035 55.6019 48.623 55.6865C48.6426 55.7679 48.6523 55.8509 48.6523 55.9355C48.6523 56.1406 48.5921 56.3343 48.4717 56.5166C48.3512 56.6989 48.1755 56.8421 47.9443 56.9463C47.7165 57.0505 47.4414 57.1025 47.1191 57.1025C46.9987 57.1025 46.8473 57.0928 46.665 57.0732C46.486 57.0537 46.3411 57.0326 46.2305 57.0098C46.123 56.9902 45.9863 56.9561 45.8203 56.9072ZM54.0137 57C53.9486 56.9967 53.8883 56.9951 53.833 56.9951C53.7777 56.9951 53.7174 56.9967 53.6523 57L53.6914 55.9404C53.6165 56.1064 53.5547 56.2269 53.5059 56.3018C53.4603 56.3734 53.4001 56.4499 53.3252 56.5312C53.2503 56.6126 53.1559 56.6908 53.042 56.7656C52.9313 56.8372 52.7995 56.8991 52.6465 56.9512C52.4935 57.0033 52.3356 57.0407 52.1729 57.0635C52.0133 57.0863 51.8522 57.0977 51.6895 57.0977C51.4095 57.0977 51.1475 57.0667 50.9033 57.0049C50.6624 56.943 50.4476 56.8356 50.2588 56.6826C50.0732 56.5296 49.9463 56.3522 49.8779 56.1504C49.8096 55.9453 49.7754 55.7142 49.7754 55.457C49.7754 55.2585 49.7965 54.7686 49.8389 53.9873C49.8844 53.2028 49.9072 52.5632 49.9072 52.0684C49.9919 52.0716 50.0553 52.0732 50.0977 52.0732C50.14 52.0732 50.2035 52.0716 50.2881 52.0684C50.262 52.3483 50.223 52.9294 50.1709 53.8115C50.1221 54.6937 50.0977 55.2454 50.0977 55.4668C50.0977 55.7142 50.1302 55.9242 50.1953 56.0967C50.2604 56.2692 50.3727 56.4124 50.5322 56.5264C50.695 56.637 50.8773 56.7152 51.0791 56.7607C51.2842 56.8063 51.4941 56.8291 51.709 56.8291C51.9336 56.8291 52.1484 56.8014 52.3535 56.7461C52.5618 56.6875 52.7344 56.6159 52.8711 56.5312C53.0078 56.4466 53.1283 56.3424 53.2324 56.2188C53.3529 56.0755 53.4554 55.9095 53.54 55.7207C53.6149 55.5547 53.6702 55.3496 53.7061 55.1055C53.7419 54.8581 53.7728 54.4121 53.7988 53.7676C53.8216 53.1491 53.8346 52.5827 53.8379 52.0684C53.9258 52.0716 53.9909 52.0732 54.0332 52.0732C54.0755 52.0732 54.139 52.0716 54.2236 52.0684L54.043 55.4863L54.0234 56.2236C54.0169 56.5264 54.0137 56.7852 54.0137 57ZM59.6484 57C59.5638 56.9967 59.5003 56.9951 59.458 56.9951C59.4124 56.9951 59.3473 56.9967 59.2627 57L59.3359 55.7598C59.2578 55.9486 59.1846 56.0983 59.1162 56.209C59.0511 56.3197 58.9665 56.4287 58.8623 56.5361C58.7614 56.6403 58.6377 56.7347 58.4912 56.8193C58.3447 56.904 58.1755 56.9723 57.9834 57.0244C57.7913 57.0765 57.5928 57.1025 57.3877 57.1025C57.0719 57.1025 56.7757 57.0456 56.499 56.9316C56.2256 56.8177 55.9928 56.6566 55.8008 56.4482C55.612 56.2367 55.4753 55.9941 55.3906 55.7207C55.3092 55.444 55.2686 55.1527 55.2686 54.8467C55.2686 54.4333 55.3451 54.0345 55.498 53.6504C55.651 53.2663 55.8724 52.944 56.1621 52.6836C56.4551 52.4199 56.7855 52.2344 57.1533 52.127C57.5244 52.0195 57.915 51.9658 58.3252 51.9658C58.6605 51.9658 59.0267 52.0016 59.4238 52.0732C59.4401 51.764 59.4482 51.4678 59.4482 51.1846C59.4482 50.9339 59.4434 50.6507 59.4336 50.335C59.5182 50.3382 59.5866 50.3398 59.6387 50.3398C59.6908 50.3398 59.7575 50.3382 59.8389 50.335C59.8031 50.9437 59.7754 51.5817 59.7559 52.249L59.6875 54.6123C59.6615 55.5173 59.6484 56.113 59.6484 56.3994V57ZM59.4092 52.4102C59.1781 52.3385 58.9779 52.293 58.8086 52.2734C58.6393 52.2507 58.4782 52.2393 58.3252 52.2393C57.9606 52.2393 57.6123 52.2913 57.2803 52.3955C56.9482 52.4997 56.6585 52.6689 56.4111 52.9033C56.1637 53.1377 55.9717 53.4339 55.835 53.792C55.7015 54.1501 55.6348 54.5033 55.6348 54.8516C55.6348 55.2357 55.708 55.5856 55.8545 55.9014C56.0042 56.2171 56.2142 56.4515 56.4844 56.6045C56.7578 56.7542 57.0622 56.8291 57.3975 56.8291C57.596 56.8291 57.7767 56.8063 57.9395 56.7607C58.1055 56.7119 58.2536 56.6452 58.3838 56.5605C58.5173 56.4759 58.6426 56.3636 58.7598 56.2236C58.8802 56.0804 58.9844 55.9128 59.0723 55.7207C59.1634 55.5286 59.2301 55.3187 59.2725 55.0908C59.3148 54.863 59.3441 54.513 59.3604 54.041L59.4092 52.4102Z" fill="white"/>
<circle cx="40" cy="40" r="38" stroke="white" stroke-width="4"/>
<circle cx="71" cy="9" r="5" stroke="white" stroke-width="4"/>
</svg>
